<svg width="153" height="57" viewBox="0 0 153 57" fill="none" xmlns="http://www.w3.org/2000/svg">
<path d="M30.8983 31.0221H31.3983V30.5221V24.75V24.25H30.8983H8.47505V8.04412H34.2405H34.7405V7.54412V1.73529V1.23529H34.2405H1H0.5V1.73529V55.2647V55.7647H1H34.6038H35.1038V55.2647V49.4926V48.9926H34.6038H8.47505V31.0221H30.8983ZM45.357 55.7647H45.7096L45.828 55.4325L50.6866 41.7941H72.1434L77.0737 55.4347L77.193 55.7647H77.544H84.7007H85.4242L85.1684 55.0879L64.9334 1.5585L64.8113 1.23529H64.4657H58.3626H58.0168L57.8948 1.55877L37.6962 55.0882L37.4409 55.7647H38.164H45.357ZM99.3047 55.7647H99.8047V55.2647V1.73529V1.23529H99.3047H92.3296H91.8296V1.73529V55.2647V55.7647H92.3296H99.3047ZM151.497 38.3368L151.561 37.7794H151H143.989H143.56L143.494 38.2034C142.824 42.5663 141.472 45.526 139.521 47.2016C137.585 48.8609 134.753 49.7279 130.947 49.7279C126.793 49.7279 123.594 48.0873 121.294 44.7945C118.973 41.474 117.787 36.9655 117.787 31.2206V26.0368C117.787 19.9447 119.035 15.3249 121.464 12.1109C123.905 8.91112 127.253 7.30882 131.564 7.30882C135.11 7.30882 137.793 8.2401 139.684 10.0388L139.686 10.0408C141.604 11.8424 142.896 14.8014 143.494 19.0115L143.555 19.4412H143.989H151H151.552L151.498 18.8918C150.931 13.1863 148.918 8.67663 145.421 5.41505C141.919 2.12422 137.282 0.5 131.564 0.5C127.243 0.5 123.419 1.53815 120.109 3.62801C116.799 5.69381 114.243 8.66331 112.439 12.5159L112.438 12.5182C110.658 16.3701 109.776 20.8191 109.776 25.8529V31C109.776 38.68 111.674 44.8701 115.522 49.5174L115.523 49.5186C119.402 54.1744 124.56 56.5 130.947 56.5C136.802 56.5 141.543 54.942 145.119 51.7789L145.119 51.7787C148.719 48.5915 150.832 44.0923 151.497 38.3368ZM53.1514 34.9853L61.4151 11.9279L69.7123 34.9853H53.1514Z" stroke="white"/>
</svg>
