<svg width="30" height="30" viewBox="0 0 30 30" fill="none" xmlns="http://www.w3.org/2000/svg">
<circle cx="15" cy="15" r="15" fill="#171A1E"/>
<g clip-path="url(#clip0)">
<path d="M23.0361 8.14453H6.96387C6.01694 8.14453 5.25 8.91623 5.25 9.8584V20.1416C5.25 21.0894 6.02257 21.8555 6.96387 21.8555H23.0361C23.9751 21.8555 24.75 21.0926 24.75 20.1416V9.8584C24.75 8.9179 23.9861 8.14453 23.0361 8.14453ZM22.7961 9.28711C22.446 9.63541 16.42 15.6297 16.2119 15.8366C15.8882 16.1604 15.4578 16.3386 15 16.3386C14.5422 16.3386 14.1118 16.1603 13.787 15.8356C13.6471 15.6964 7.68761 9.76829 7.20388 9.28711H22.7961ZM6.39258 19.909V10.0917L11.33 15.003L6.39258 19.909ZM7.20461 20.7129L12.1401 15.8088L12.9802 16.6446C13.5197 17.1841 14.237 17.4812 15 17.4812C15.763 17.4812 16.4803 17.1841 17.0187 16.6456L17.86 15.8088L22.7954 20.7129H7.20461ZM23.6074 19.909L18.67 15.003L23.6074 10.0917V19.909Z" fill="white"/>
</g>
<defs>
<clipPath id="clip0">
<rect width="19.5" height="19.5" fill="white" transform="translate(5.25 5.25)"/>
</clipPath>
</defs>
</svg>
