<svg width="90" height="81" viewBox="0 0 90 81" fill="none" xmlns="http://www.w3.org/2000/svg">
<path fill-rule="evenodd" clip-rule="evenodd" d="M21.8441 44.3374L21.7047 35.5711L25.2933 32.3991L25.2159 27.5613L30.451 22.932L30.4011 19.8322L35.1703 15.5281V15.5533L35.1697 15.5525L35.2664 21.6527L33.5291 21.5821L32.0432 21.5203L32.1088 25.7159L32.2846 36.7244C28.8112 39.3856 25.3028 41.9883 21.8441 44.3374ZM39.2969 15.7216L36.7997 15.6201L39.2668 13.6605L39.266 13.6865L39.2654 13.6857L39.2969 15.7216Z" fill="white"/>
<path fill-rule="evenodd" clip-rule="evenodd" d="M33.2595 35.9756L33.0459 22.5654L36.2691 22.6986L36.1723 16.5992L40.3002 16.7669L40.2474 13.4694L49.3553 13.8836L49.4066 17.1399L52.9784 17.285L53.036 20.9098C50.5153 22.6455 47.8903 24.6155 45.255 26.6396C41.4095 29.5939 37.3645 32.8136 33.2595 35.9756Z" fill="white"/>
<path fill-rule="evenodd" clip-rule="evenodd" d="M15.8698 53.4137C34.38 43.7726 55.4754 24.4956 64.9983 25.0411C64.2055 29.9565 64.7496 34.8686 65.3465 39.7239L67.7621 59.3687H19.8867C17.9976 58.4017 16.7409 56.264 15.8698 53.4137ZM15.7128 52.6427L15.7136 49.0155C35.7395 37.7079 59.426 13.1818 68.0051 16.4491C66.7611 18.6347 65.9323 20.8257 65.4041 23.0179C55.9951 22.1991 34.4677 42.5611 15.7128 52.6427Z" fill="white"/>
<path fill-rule="evenodd" clip-rule="evenodd" d="M68.3567 59.3687L66.3616 39.7239C65.8965 35.1496 65.4804 30.5252 66.1854 25.8946C67.7621 26.9532 71.7735 33.371 72.0918 34.3255C71.8105 42.4442 70.0736 50.9092 68.3567 59.3687ZM66.5868 23.7857C67.0981 21.5711 67.9034 19.3554 69.1209 17.1443C70.3009 19.0612 71.033 21.3569 71.4774 23.7548C71.9858 26.7846 72.1721 29.8792 72.124 33.0289C70.537 29.3351 68.8909 26.3154 66.5868 23.7857ZM69.5181 16.4491C69.5181 16.4505 69.5187 16.4514 69.5187 16.4529L69.5154 16.4537C69.5162 16.4522 69.5168 16.4505 69.5181 16.4491Z" fill="white"/>
<path fill-rule="evenodd" clip-rule="evenodd" d="M15.8698 53.4137C34.38 43.7726 55.4754 24.4956 64.9983 25.0411C64.2055 29.9565 64.7496 34.8686 65.3465 39.7239L67.7621 59.3687H19.8867C17.9976 58.4017 16.7409 56.264 15.8698 53.4137ZM15.7128 52.6427L15.7136 49.0155C35.7395 37.7079 59.426 13.1818 68.0051 16.4491C66.7611 18.6347 65.9323 20.8257 65.4041 23.0179C55.9951 22.1991 34.4677 42.5611 15.7128 52.6427Z" fill="white"/>
<path fill-rule="evenodd" clip-rule="evenodd" d="M68.3567 59.3687L66.3616 39.7239C65.8965 35.1496 65.4804 30.5252 66.1854 25.8946C67.7621 26.9532 71.7735 33.371 72.0918 34.3255C71.8105 42.4442 70.0736 50.9092 68.3567 59.3687ZM66.5868 23.7857C67.0981 21.5711 67.9034 19.3554 69.1209 17.1443C70.3009 19.0612 71.033 21.3569 71.4774 23.7548C71.9858 26.7846 72.1721 29.8792 72.124 33.0289C70.537 29.3351 68.8909 26.3154 66.5868 23.7857ZM69.5181 16.4491C69.5181 16.4505 69.5187 16.4514 69.5187 16.4529L69.5154 16.4537C69.5162 16.4522 69.5168 16.4505 69.5181 16.4491Z" fill="white"/>
<path fill-rule="evenodd" clip-rule="evenodd" d="M0 62.6931V61.5139H88.8993V62.6931H0Z" fill="white"/>
<path fill-rule="evenodd" clip-rule="evenodd" d="M53.9967 20.2706L54.4792 0.542509H55.5725L56.0225 18.9663C55.3194 19.4106 54.654 19.8379 53.9967 20.2706Z" fill="white"/>
<path fill-rule="evenodd" clip-rule="evenodd" d="M78.1016 80.2029C77.028 79.9766 76.121 79.7081 75.3757 79.3962L74.3881 80.1407H73.1729L73.0183 75.6537C73.5677 75.5888 74.1175 75.5262 74.6654 75.4571C74.8484 75.7428 75.051 76.0325 75.2771 76.3296C75.7049 76.902 76.2013 77.4142 76.7644 77.8707C77.3445 78.3423 77.9952 78.7275 78.7159 79.0246C79.4369 79.3222 80.2775 79.4721 81.2425 79.4721C82.5408 79.4721 83.5355 79.2359 84.225 78.7658C84.9171 78.2938 85.2644 77.703 85.2644 76.9895C85.2644 76.4019 84.9703 75.9081 84.3831 75.5078C83.7971 75.1077 82.8899 74.7645 81.6559 74.474C81.6506 74.474 81.6473 74.4723 81.6435 74.4723C84.1623 74.2002 86.6714 73.8271 89.1764 73.4273C89.7243 74.0722 89.9999 74.8474 89.9999 75.7461C89.9999 76.3964 89.7945 77.027 89.3835 77.6343C88.9722 78.2441 88.4218 78.7497 87.7246 79.153C86.9626 79.5977 86.0777 79.9422 85.0767 80.182C84.0765 80.4218 82.9073 80.5425 81.5716 80.5425C80.3305 80.5425 79.1749 80.429 78.1016 80.2029ZM0.32605 80.1407V79.3118C0.622295 79.2896 0.993809 79.2587 1.44228 79.2175C1.89137 79.1729 2.20423 79.1255 2.38715 79.0682C2.74037 78.9625 2.97943 78.8233 3.10978 78.6489C3.23615 78.4753 3.30132 78.2526 3.30132 77.973L3.29985 73.6869C4.98628 74.1111 6.67965 74.4915 8.37933 74.8328L8.38122 78.2281C8.467 78.4915 8.73381 78.7115 9.18564 78.8933C9.63285 79.0735 10.1755 79.1636 10.814 79.1636C11.9488 79.1636 12.8722 78.8815 13.5843 78.3129C14.2929 77.747 14.6492 76.9513 14.6492 75.928C14.6492 75.9206 14.6469 75.9134 14.6469 75.9058C16.5184 76.1765 18.393 76.4076 20.2762 76.6034C20.1957 77.1371 19.9941 77.6038 19.6633 78.0018C19.2306 78.5275 18.6087 78.9437 17.7969 79.2507C16.9374 79.574 15.948 79.8018 14.8284 79.936C13.7069 80.0735 12.3893 80.1407 10.8725 80.1407H0.32605ZM22.5194 80.1407V79.3118C22.7967 79.2896 23.163 79.2617 23.6215 79.2213C24.0788 79.1824 24.3976 79.1365 24.5788 79.0792C24.952 78.9659 25.1967 78.8261 25.3183 78.6649C25.436 78.5028 25.4945 78.275 25.4945 77.9853L25.493 77.0659C27.1838 77.1949 28.8791 77.2983 30.5723 77.3816L30.5739 77.8897C30.5739 78.1437 30.6376 78.3678 30.769 78.5546C30.8977 78.7387 31.1429 78.8895 31.5056 79.0048C31.6958 79.0616 32.0051 79.119 32.4353 79.1849C32.8642 79.2507 33.2258 79.2896 33.5219 79.3118V80.1407H22.5194ZM42.5804 80.1407V79.3118C42.8184 79.2896 43.2071 79.2427 43.7464 79.1674C44.2855 79.0934 44.7258 78.9659 45.0679 78.7821C45.4499 78.5835 45.7087 78.2503 45.8416 77.7779C45.8571 77.7191 45.8746 77.6559 45.8899 77.5873C46.5695 77.573 47.249 77.555 47.929 77.5366C47.9407 77.5763 47.9525 77.6142 47.9662 77.6523C48.1245 78.1075 48.3789 78.4431 48.7319 78.654C48.9697 78.802 49.3976 78.9437 50.014 79.0792C50.6271 79.2124 51.06 79.2896 51.3064 79.3118V80.1407H42.5804ZM59.9644 80.1407V79.3118C60.2876 79.2896 60.6883 79.2556 61.1607 79.2048C61.6319 79.1564 61.9553 79.1029 62.1262 79.0468C62.4773 78.9403 62.7324 78.7967 62.8831 78.6108C63.0354 78.4266 63.1144 78.1942 63.1144 77.9113V76.6561C64.7779 76.5138 66.4429 76.3568 68.1064 76.1883V77.9223C68.1064 78.1758 68.1653 78.3909 68.2849 78.5658C68.4041 78.7364 68.6493 78.888 69.0244 79.0143C69.2147 79.0792 69.5262 79.138 69.9592 79.1947C70.3935 79.2522 70.7291 79.2896 70.9675 79.3118V80.1407H59.9644ZM53.6913 78.5061C53.4704 78.0574 53.2776 77.6669 53.1108 77.3332C54.6158 77.2594 56.1174 77.1712 57.6188 77.0726L56.1292 79.8956H54.3261C54.2407 79.6611 54.0286 79.1985 53.6913 78.5061ZM46.0405 75.7675V68.3091C46.0405 67.8559 45.9654 67.4801 45.8147 67.1809C45.6616 66.8777 45.4308 66.6417 45.1263 66.4634C44.7449 66.2433 44.3541 66.1029 43.9554 66.0384C43.5528 65.975 43.1472 65.9318 42.7364 65.9105V65.083H52.0825L57.0901 75.0249L61.3098 66.9517C61.4519 66.6546 61.5924 66.2987 61.724 65.8906C61.8577 65.4793 61.9294 65.2116 61.9397 65.083H70.9398V65.9105C70.6357 65.925 70.3153 65.9536 69.9812 65.9948C69.6474 66.0384 69.3274 66.0957 69.0244 66.164C68.6493 66.2583 68.4041 66.4023 68.2849 66.6005C68.1653 66.799 68.1064 67.0181 68.1064 67.2594V74.9124C66.4429 75.0504 64.7779 75.1784 63.1144 75.2917V66.6658L58.4081 75.5785C56.3945 75.6846 54.3797 75.7707 52.3663 75.8324L47.7315 66.4935V75.6523C47.7315 75.7493 47.7315 75.8419 47.7339 75.9295C47.1685 75.9367 46.604 75.9428 46.0405 75.9443C46.0405 75.8859 46.0405 75.8286 46.0405 75.7675ZM25.4945 75.1299V67.3645C25.4945 67.1175 25.4383 66.9033 25.3233 66.7229C25.2102 66.5427 24.9621 66.3915 24.5788 66.2725C24.3133 66.19 23.9573 66.1105 23.5139 66.0433C23.0686 65.9764 22.7383 65.9318 22.5194 65.9105V65.083H33.7222C36.3472 65.083 38.3059 65.393 39.6032 66.0124C40.9009 66.6305 41.5501 67.5787 41.5501 68.8506C41.5501 69.6994 41.3138 70.4292 40.8407 71.0416C40.3704 71.652 39.7193 72.1515 38.8894 72.5319C38.0299 72.9282 37.0484 73.2145 35.9478 73.3926C34.8456 73.5681 33.6077 73.658 32.2349 73.658H30.5739V75.5205C28.8757 75.4021 27.1838 75.2759 25.4945 75.1299ZM13.7124 73.7656C13.6129 73.6793 13.5055 73.5975 13.3903 73.5188C12.5518 72.9608 11.3447 72.6789 9.76951 72.6789C9.58954 72.6789 9.34817 72.6865 9.04667 72.696C8.78658 72.7064 8.58474 72.7151 8.44198 72.721C6.71687 72.4421 4.93309 72.1054 3.30069 71.7861L3.30132 67.3645C3.30132 67.1101 3.25023 66.8982 3.14532 66.7284C3.03956 66.5592 2.78768 66.4091 2.38715 66.2811C2.09111 66.19 1.74714 66.1132 1.35649 66.0528C0.963113 65.9933 0.622295 65.9464 0.32605 65.9105V65.083H11.3588C14.1337 65.083 16.1383 65.3659 17.3676 65.9318C18.5999 66.4973 19.2128 67.3336 19.2128 68.4364C19.2128 68.9445 19.0761 69.3932 18.799 69.7789C18.5233 70.1663 18.1262 70.4994 17.6106 70.7804C17.1433 71.043 16.585 71.2687 15.9362 71.4592C15.2876 71.6506 14.5918 71.8111 13.8473 71.9386V72.1382C14.5918 72.1966 15.366 72.3184 16.166 72.507C16.9666 72.6922 17.6636 72.9352 18.2549 73.2306C18.8654 73.5442 19.3604 73.9339 19.7439 74.4055C19.7872 74.4575 19.8259 74.5114 19.8639 74.566C17.8161 74.3319 15.7617 74.0595 13.7124 73.7656ZM77.5499 73.4448C76.1858 73.0401 75.1736 72.4651 74.5096 71.7155C73.8471 70.9644 73.5164 70.1259 73.5164 69.1999C73.5164 68.6127 73.6863 68.0488 74.0298 67.5066C74.3745 66.9682 74.8761 66.4797 75.5312 66.0487C76.1635 65.6455 76.9679 65.3175 77.9523 65.0616C78.9338 64.8077 80.0037 64.6812 81.157 64.6812C82.282 64.6812 83.3352 64.795 84.321 65.0253C85.3002 65.2549 86.0739 65.4844 86.6378 65.7199L87.5091 65.083H88.7536L88.87 70.2188H87.6392C87.3518 69.6668 87.0173 69.1027 86.629 68.5269C86.2436 67.9502 85.8349 67.4706 85.4062 67.0887C84.9388 66.6776 84.4012 66.3518 83.7885 66.1067C83.1792 65.8631 82.4639 65.7413 81.6435 65.7413C80.613 65.7413 79.7706 65.9574 79.1165 66.39C78.4643 66.8204 78.1396 67.3535 78.1396 67.991C78.1396 68.5928 78.4197 69.0828 78.9884 69.4645C79.5546 69.8487 80.4402 70.1839 81.6435 70.4738C82.3491 70.6491 83.0698 70.8269 83.804 71.0033C84.5368 71.1822 85.1913 71.3497 85.7644 71.514C86.85 71.8259 87.7311 72.2287 88.4077 72.7248C85.2937 73.1226 82.1779 73.5051 79.0563 73.8485C78.528 73.7149 78.0276 73.5799 77.5499 73.4448ZM34.7462 71.8576C35.5609 71.3241 35.9684 70.5032 35.9684 69.3909C35.9684 68.2598 35.6606 67.4205 35.0462 66.8711C34.4312 66.3243 33.3354 66.0487 31.7623 66.0487H30.5739V72.6599H31.1748C32.7402 72.6599 33.9291 72.3928 34.7462 71.8576ZM12.5463 70.8724C13.2807 70.3355 13.647 69.6146 13.647 68.7009C13.647 67.8669 13.3303 67.2166 12.6956 66.7504C12.0623 66.2811 11.1101 66.0487 9.84163 66.0487C9.66207 66.0487 9.42554 66.0528 9.13476 66.0646C8.84125 66.0758 8.59336 66.0839 8.38122 66.0906V71.6704H9.12719C10.6721 71.6704 11.8106 71.4051 12.5463 70.8724Z" fill="white"/>
</svg>
