<svg width="119" height="120" viewBox="0 0 119 120" fill="none" xmlns="http://www.w3.org/2000/svg">
<path d="M85.748 40.9616C87.5627 42.7927 87.5627 45.7608 85.748 47.5909L54.5831 79.0384C52.7684 80.8685 49.8278 80.8685 48.0131 79.0384L33.1774 64.0677C31.3627 62.2375 31.3627 59.2694 33.1774 57.4393C34.9911 55.6082 37.9327 55.6082 39.7464 57.4393L51.2976 69.0948L79.178 40.9616C80.9927 39.1315 83.9343 39.1315 85.748 40.9616ZM118.925 60C118.925 93.165 92.3261 120 59.4627 120C26.5947 120 0 93.1604 0 60C0 26.835 26.5992 0 59.4627 0C92.3307 0 118.925 26.8396 118.925 60ZM109.634 60C109.634 32.0169 87.1916 9.375 59.4627 9.375C31.7302 9.375 9.29105 32.0206 9.29105 60C9.29105 87.9831 31.7338 110.625 59.4627 110.625C87.1952 110.625 109.634 87.9794 109.634 60Z" fill="#45C195"/>
</svg>
