<svg width="40" height="40" viewBox="0 0 40 40" fill="none" xmlns="http://www.w3.org/2000/svg">
<rect width="40" height="40" rx="3" fill="#171A1E"/>
<path d="M30.1425 13.5879C29.3484 12.6439 27.8822 12.2588 25.0821 12.2588H14.9177C12.0535 12.2588 10.5625 12.6687 9.77135 13.6737C9 14.6537 9 16.0975 9 18.0958V21.9046C9 25.7759 9.9152 27.7415 14.9177 27.7415H25.0821C27.5104 27.7415 28.8559 27.4017 29.7264 26.5687C30.6191 25.7143 31 24.3195 31 21.9046V18.0958C31 15.9884 30.9403 14.5361 30.1425 13.5879ZM23.1241 20.526L18.5085 22.9383C18.4053 22.9922 18.2924 23.019 18.1797 23.019C18.0521 23.019 17.9248 22.9846 17.8121 22.9164C17.5997 22.7877 17.4701 22.5576 17.4701 22.3093V17.5003C17.4701 17.2524 17.5994 17.0225 17.8113 16.8938C18.0233 16.765 18.2869 16.7562 18.5068 16.8705L23.1224 19.2672C23.3573 19.3891 23.5047 19.6316 23.5051 19.8961C23.5054 20.1608 23.3585 20.4035 23.1241 20.526Z" fill="white"/>
</svg>
