<svg width="60" height="60" viewBox="0 0 60 60" fill="none" xmlns="http://www.w3.org/2000/svg">
<circle cx="30" cy="30" r="30" fill="#171A1E"/>
<path d="M30.2609 11.5273C24.9171 11.5273 20.5488 15.8934 20.5488 21.2344C20.5488 26.5754 24.9171 30.9414 30.2609 30.9414C35.6047 30.9414 39.973 26.5754 39.973 21.2344C39.973 15.8934 35.6047 11.5273 30.2609 11.5273Z" fill="#52D1E0"/>
<path d="M46.9285 38.6985C46.674 38.0626 46.3347 37.4692 45.953 36.9181C44.0021 34.0357 40.991 32.1282 37.5981 31.6619C37.174 31.6196 36.7075 31.7043 36.3681 31.9586C34.5868 33.2727 32.4663 33.9509 30.2609 33.9509C28.0554 33.9509 25.9349 33.2727 24.1536 31.9586C23.8143 31.7043 23.3478 31.5771 22.9237 31.6619C19.5308 32.1282 16.4772 34.0357 14.5687 36.9181C14.187 37.4692 13.8477 38.1051 13.5933 38.6985C13.4661 38.9528 13.5085 39.2495 13.6357 39.5039C13.975 40.0973 14.3991 40.6908 14.7808 41.1994C15.3745 42.0049 16.0107 42.7254 16.7317 43.4036C17.3254 43.9971 18.004 44.5481 18.6827 45.0992C22.0331 47.6002 26.0622 48.9141 30.2185 48.9141C34.3748 48.9141 38.4039 47.6001 41.7544 45.0992C42.4329 44.5906 43.1115 43.9971 43.7053 43.4036C44.3839 42.7254 45.0624 42.0048 45.6563 41.1994C46.0803 40.6484 46.4621 40.0973 46.8013 39.5039C47.0133 39.2495 47.0557 38.9528 46.9285 38.6985Z" fill="#52D1E0"/>
</svg>
