<svg width="43" height="42" viewBox="0 0 43 42" fill="none" xmlns="http://www.w3.org/2000/svg">
<path d="M41.5172 18.6299C41.0636 17.9516 40.5383 17.324 39.9505 16.7579C37.8325 14.6982 35.129 12.8125 32.3397 11.4474C29.2549 9.93819 26.1369 9.06943 23.0513 8.85487C22.989 8.81174 22.9197 8.7797 22.8465 8.76014L8.97622 5.15148C8.97642 4.57721 8.78618 4.01907 8.4353 3.56446C8.08441 3.10984 7.59268 2.78441 7.03708 2.63911L3.90289 1.82298C3.73669 1.77989 3.56018 1.80455 3.41216 1.89154C3.26413 1.97854 3.1567 2.12074 3.11348 2.28691L2.1346 6.04859C2.09151 6.21479 2.11617 6.3913 2.20317 6.53932C2.29016 6.68735 2.43237 6.79478 2.59853 6.838L5.73272 7.65414C5.94719 7.70973 6.16781 7.73802 6.38936 7.73835C6.85066 7.73699 7.30327 7.61272 7.70059 7.37834C8.09792 7.14396 8.42561 6.80793 8.64993 6.40484L18.3836 8.93745C13.5014 9.35604 8.98027 10.73 5.65176 12.8513C3.88427 13.9776 2.5119 15.2674 1.57351 16.6867C1.5032 16.7925 1.46574 16.9167 1.46582 17.0438V25.1744C1.46574 25.3014 1.5032 25.4256 1.57351 25.5314C2.5119 26.9507 3.88427 28.2405 5.65176 29.3668C8.96812 31.48 13.4682 32.8523 18.3302 33.2758L8.65074 35.7947C8.37118 35.2929 7.93301 34.8981 7.40493 34.6721C6.87684 34.4462 6.2887 34.4019 5.73272 34.5462L2.59853 35.3615C2.51617 35.3829 2.43883 35.4203 2.37093 35.4716C2.30303 35.5229 2.24591 35.5871 2.20282 35.6605C2.15974 35.7339 2.13154 35.815 2.11983 35.8993C2.10812 35.9836 2.11314 36.0694 2.1346 36.1517L3.11348 39.9126C3.14947 40.0513 3.23043 40.1741 3.34368 40.2618C3.45693 40.3496 3.59607 40.3973 3.73934 40.3976C3.79452 40.3973 3.84946 40.3903 3.90289 40.3765L7.03708 39.5612C7.59262 39.4158 8.08429 39.0903 8.43516 38.6357C8.78603 38.1811 8.97631 37.6231 8.97622 37.0488L22.8465 33.4394C22.9079 33.4234 22.9666 33.3983 23.0206 33.3649C26.1167 33.1544 29.2444 32.2848 32.3397 30.7707C35.129 29.4056 37.8325 27.5199 39.9505 25.4602C40.5383 24.8941 41.0636 24.2665 41.5172 23.5882C41.5875 23.4824 41.625 23.3582 41.6249 23.2312V18.9869C41.625 18.8599 41.5875 18.7357 41.5172 18.6299ZM7.63866 5.47211V5.47292C7.59582 5.63752 7.52098 5.79206 7.41841 5.92774C7.31583 6.06341 7.18754 6.17755 7.04086 6.26363C6.89417 6.34972 6.73196 6.40607 6.5635 6.42946C6.39503 6.45286 6.22361 6.44284 6.05902 6.39998L3.5515 5.74739L4.20409 3.23988L6.71079 3.89247C7.04307 3.97929 7.32735 4.19434 7.50129 4.49047C7.67523 4.78659 7.72463 5.13961 7.63866 5.47211ZM6.71079 38.307L4.20409 38.9596L3.5515 36.4521L6.05902 35.7995C6.22413 35.7553 6.39636 35.7442 6.56578 35.7668C6.73521 35.7894 6.89848 35.8454 7.04619 35.9314C7.1939 36.0174 7.32312 36.1318 7.42641 36.268C7.5297 36.4042 7.60502 36.5595 7.64802 36.7249C7.69102 36.8904 7.70086 37.0627 7.67696 37.2319C7.65306 37.4012 7.59591 37.564 7.50879 37.7111C7.42167 37.8582 7.3063 37.9865 7.16934 38.0888C7.03239 38.1911 6.87654 38.2653 6.71079 38.307ZM40.3295 23.0328C39.9511 23.5722 39.5216 24.0738 39.047 24.5307C35.2739 28.2 28.6955 32.1204 21.5454 32.1204C15.7223 32.1204 10.1834 30.7181 6.34807 28.2737C4.80162 27.2892 3.59603 26.1808 2.76128 24.976V17.2421C3.59603 16.0374 4.80162 14.9289 6.34807 13.9444C10.1834 11.5 15.7223 10.0977 21.5454 10.0977C28.6955 10.0977 35.2739 14.0181 39.0478 17.6874C39.522 18.1445 39.9512 18.6461 40.3295 19.1853V23.0328Z" fill="#52D1E0"/>
<path d="M38.1443 18.6159C36.5678 17.1016 34.8133 15.7842 32.9194 14.6926C32.8977 14.6781 32.875 14.6649 32.8517 14.6531C32.0171 14.1721 31.1575 13.7361 30.2765 13.3468C30.2459 13.3303 30.2141 13.3163 30.1813 13.305C27.5383 12.1519 24.5944 11.3932 21.5455 11.3932C18.8856 11.3851 16.2345 11.6983 13.6497 12.3259C13.6317 12.3293 13.614 12.334 13.5965 12.3387C12.7193 12.557 11.8538 12.8198 11.0034 13.1263C10.976 13.134 10.9491 13.1436 10.923 13.155C9.566 13.6408 8.26545 14.2717 7.04388 15.0367C5.87748 15.7795 4.92168 16.602 4.20311 17.4813C4.10849 17.597 4.05683 17.742 4.05688 17.8915V24.3268C4.05689 24.4762 4.10854 24.621 4.20311 24.7367C4.92176 25.616 5.87773 26.4386 7.04445 27.1819C8.26417 27.9458 9.5627 28.5761 10.9175 29.0617C10.9475 29.075 10.9785 29.086 11.0102 29.0947C11.8518 29.3978 12.7082 29.6582 13.5761 29.8748C13.603 29.8832 13.6303 29.8898 13.658 29.8946C16.2402 30.5207 18.8885 30.8331 21.5455 30.825C24.594 30.825 27.5376 30.0665 30.1804 28.9136C30.2136 28.9021 30.2459 28.8879 30.2769 28.8712C31.1575 28.4821 32.0168 28.0463 32.8509 27.5655C32.8747 27.5535 32.8977 27.5399 32.9198 27.525C34.8137 26.4334 36.5682 25.116 38.1447 23.6017C38.4078 23.3468 38.6561 23.0769 38.8883 22.7935C38.9826 22.6778 39.0341 22.5332 39.0341 22.384V19.8336C39.0341 19.6844 38.9826 19.5397 38.8883 19.4241C38.6559 19.1407 38.4075 18.8708 38.1443 18.6159ZM31.9092 26.6148C31.4881 26.8502 31.0563 27.0759 30.6137 27.292V14.9266C31.056 15.142 31.4879 15.3678 31.9092 15.6038V26.6148ZM23.4887 21.7568H24.7842C24.9559 21.7568 25.1207 21.6886 25.2422 21.5671C25.3636 21.4457 25.4319 21.2809 25.4319 21.1091C25.4319 20.9373 25.3636 20.7726 25.2422 20.6511C25.1207 20.5296 24.9559 20.4614 24.7842 20.4614H23.4887V15.9273H26.7273C26.8991 15.9273 27.0639 15.8591 27.1853 15.7376C27.3068 15.6161 27.3751 15.4514 27.3751 15.2796C27.3751 15.1078 27.3068 14.943 27.1853 14.8216C27.0639 14.7001 26.8991 14.6319 26.7273 14.6319H23.4887V12.7968C25.4956 13.0305 27.4587 13.5503 29.3182 14.3404V17.2228H26.7273C26.5555 17.2228 26.3908 17.291 26.2693 17.4125C26.1479 17.5339 26.0796 17.6987 26.0796 17.8705C26.0796 18.0423 26.1479 18.207 26.2693 18.3285C26.3908 18.45 26.5555 18.5182 26.7273 18.5182H29.3182V24.3478H28.6705C28.4987 24.3478 28.334 24.416 28.2125 24.5375C28.091 24.6589 28.0228 24.8237 28.0228 24.9955C28.0228 25.1673 28.091 25.332 28.2125 25.4535C28.334 25.575 28.4987 25.6432 28.6705 25.6432H29.3182V27.8779C27.4587 28.6681 25.4956 29.188 23.4887 29.4218V21.7568ZM19.6023 14.6319H17.6592C17.4874 14.6319 17.3226 14.7001 17.2011 14.8216C17.0797 14.943 17.0114 15.1078 17.0114 15.2796C17.0114 15.4514 17.0797 15.6161 17.2011 15.7376C17.3226 15.8591 17.4874 15.9273 17.6592 15.9273H19.6023V16.575H18.3069C18.1351 16.575 17.9703 16.6433 17.8489 16.7647C17.7274 16.8862 17.6592 17.051 17.6592 17.2228C17.6592 17.3945 17.7274 17.5593 17.8489 17.6808C17.9703 17.8022 18.1351 17.8705 18.3069 17.8705H19.6023V29.4736C17.8578 29.377 16.1244 29.134 14.4205 28.7474V24.3478H17.0114C17.1832 24.3478 17.348 24.2795 17.4694 24.158C17.5909 24.0366 17.6592 23.8718 17.6592 23.7C17.6592 23.5282 17.5909 23.3635 17.4694 23.242C17.348 23.1205 17.1832 23.0523 17.0114 23.0523H14.4205V13.471C16.1244 13.0843 17.8578 12.8413 19.6023 12.7446V14.6319ZM11.8296 14.206C12.2511 14.0616 12.6829 13.927 13.1251 13.8024V28.416C12.6834 28.2913 12.2516 28.1568 11.8296 28.0124V14.206ZM5.35234 24.0902V23.0523H7.94325C8.11504 23.0523 8.27979 22.9841 8.40126 22.8626C8.52273 22.7411 8.59097 22.5764 8.59097 22.4046C8.59097 22.2328 8.52273 22.068 8.40126 21.9466C8.27979 21.8251 8.11504 21.7568 7.94325 21.7568H5.35234V18.128C5.96258 17.4263 6.78333 16.7387 7.73994 16.1295C8.62767 15.5704 9.56264 15.0901 10.5342 14.6942V17.8705H7.29552C7.12373 17.8705 6.95898 17.9387 6.83751 18.0602C6.71604 18.1817 6.64779 18.3464 6.64779 18.5182C6.64779 18.69 6.71604 18.8548 6.83751 18.9762C6.95898 19.0977 7.12373 19.1659 7.29552 19.1659H10.5342V27.5241C9.56296 27.1282 8.62828 26.6481 7.74083 26.0892C6.78365 25.4797 5.96258 24.7919 5.35234 24.0902ZM20.8978 29.523V12.6956C21.1132 12.6915 21.329 12.6887 21.5455 12.6887C21.762 12.6887 21.9779 12.6931 22.1932 12.7011V29.5171C21.9779 29.5251 21.762 29.5293 21.5455 29.5296C21.329 29.5296 21.1132 29.5267 20.8978 29.5227V29.523ZM37.7387 22.1485C37.5853 22.3254 37.4188 22.5012 37.2416 22.6735C36.0063 23.8628 34.6537 24.924 33.2046 25.8408V21.7568H35.1478C35.3196 21.7568 35.4843 21.6886 35.6058 21.5671C35.7273 21.4457 35.7955 21.2809 35.7955 21.1091C35.7955 20.9373 35.7273 20.7726 35.6058 20.6511C35.4843 20.5296 35.3196 20.4614 35.1478 20.4614H33.2046V16.3772C34.6536 17.2941 36.006 18.3553 37.2412 19.5447C37.4184 19.7169 37.585 19.8929 37.7387 20.0701V22.1485Z" fill="#52D1E0"/>
<path d="M26.0797 24.3477H24.7842C24.6124 24.3477 24.4477 24.4159 24.3262 24.5374C24.2047 24.6588 24.1365 24.8236 24.1365 24.9954C24.1365 25.1672 24.2047 25.3319 24.3262 25.4534C24.4477 25.5749 24.6124 25.6431 24.7842 25.6431H26.0797C26.2514 25.6431 26.4162 25.5749 26.5377 25.4534C26.6591 25.3319 26.7274 25.1672 26.7274 24.9954C26.7274 24.8236 26.6591 24.6588 26.5377 24.5374C26.4162 24.4159 26.2514 24.3477 26.0797 24.3477Z" fill="#52D1E0"/>
<path d="M17.0113 26.291H15.7158C15.5441 26.291 15.3793 26.3593 15.2578 26.4807C15.1364 26.6022 15.0681 26.767 15.0681 26.9387C15.0681 27.1105 15.1364 27.2753 15.2578 27.3968C15.3793 27.5182 15.5441 27.5865 15.7158 27.5865H17.0113C17.1831 27.5865 17.3478 27.5182 17.4693 27.3968C17.5908 27.2753 17.659 27.1105 17.659 26.9387C17.659 26.767 17.5908 26.6022 17.4693 26.4807C17.3478 26.3593 17.1831 26.291 17.0113 26.291Z" fill="#52D1E0"/>
<path d="M15.7158 17.8704H16.3636C16.5354 17.8704 16.7001 17.8022 16.8216 17.6807C16.9431 17.5592 17.0113 17.3945 17.0113 17.2227C17.0113 17.0509 16.9431 16.8861 16.8216 16.7647C16.7001 16.6432 16.5354 16.575 16.3636 16.575H15.7158C15.5441 16.575 15.3793 16.6432 15.2578 16.7647C15.1364 16.8861 15.0681 17.0509 15.0681 17.2227C15.0681 17.3945 15.1364 17.5592 15.2578 17.6807C15.3793 17.8022 15.5441 17.8704 15.7158 17.8704Z" fill="#52D1E0"/>
</svg>
