<svg width="16" height="16" viewBox="0 0 16 16" fill="none" xmlns="http://www.w3.org/2000/svg">
<path d="M13.0346 0.948545C13.6254 0.367839 14.5833 0.367839 15.1741 0.948545C15.765 1.52925 15.765 2.47076 15.1741 3.05146L10.2615 7.87993L15.3137 12.8456C15.9046 13.4263 15.9046 14.3678 15.3137 14.9485C14.7229 15.5292 13.765 15.5292 13.1742 14.9485L8.12196 9.98285L3.06974 14.9485C2.47892 15.5292 1.521 15.5292 0.930178 14.9485C0.339354 14.3678 0.339355 13.4263 0.930178 12.8456L5.9824 7.87993L1.0698 3.05146C0.478973 2.47076 0.478973 1.52925 1.0698 0.948545C1.66062 0.367839 2.61854 0.367839 3.20936 0.948545L8.12196 5.77701L13.0346 0.948545Z" fill="white" fill-opacity="0.5"/>
</svg>
