<svg width="40" height="40" viewBox="0 0 40 40" fill="none" xmlns="http://www.w3.org/2000/svg">
<rect width="40" height="40" rx="3" fill="#171A1E"/>
<path fill-rule="evenodd" clip-rule="evenodd" d="M20.0043 14.3506C16.8842 14.3506 14.3528 16.8819 14.3528 20.0021C14.3528 23.1223 16.8842 25.6536 20.0043 25.6536C23.1245 25.6536 25.6557 23.1223 25.6557 20.0021C25.6557 16.8819 23.1245 14.3506 20.0043 14.3506ZM20.0043 23.6681C17.9801 23.6681 16.3383 22.0264 16.3383 20.0021C16.3383 17.9778 17.9801 16.3361 20.0043 16.3361C22.0285 16.3361 23.6702 17.9778 23.6702 20.0021C23.6702 22.0264 22.0285 23.6681 20.0043 23.6681Z" fill="white"/>
<path d="M25.8792 15.4466C26.608 15.4466 27.1987 14.8558 27.1987 14.1272C27.1987 13.3984 26.608 12.8078 25.8792 12.8078C25.1506 12.8078 24.5598 13.3984 24.5598 14.1272C24.5598 14.8558 25.1506 15.4466 25.8792 15.4466Z" fill="white"/>
<path fill-rule="evenodd" clip-rule="evenodd" d="M30.9419 15.4681C30.8904 14.2991 30.7013 13.4955 30.4305 12.7991C30.1512 12.0599 29.7214 11.3982 29.1584 10.848C28.6082 10.2893 27.9421 9.85518 27.2115 9.58019C26.5111 9.3094 25.7116 9.12037 24.5427 9.06883C23.365 9.01293 22.9911 9 20.0042 9C17.0173 9 16.6434 9.01293 15.4701 9.06447C14.3012 9.116 13.4976 9.3052 12.8014 9.57583C12.062 9.85518 11.4002 10.2849 10.8501 10.848C10.2914 11.3982 9.85742 12.0643 9.58227 12.7949C9.31148 13.4955 9.12244 14.2948 9.07091 15.4637C9.015 16.6414 9.00208 17.0152 9.00208 20.0021C9.00208 22.9891 9.015 23.3629 9.06654 24.5362C9.11808 25.7052 9.30728 26.5088 9.57807 27.2052C9.85742 27.9444 10.2914 28.6061 10.8501 29.1563C11.4002 29.715 12.0664 30.1491 12.797 30.4241C13.4976 30.6949 14.2968 30.8839 15.4659 30.9355C16.6391 30.9872 17.0131 30.9999 20 30.9999C22.9869 30.9999 23.3608 30.9872 24.5341 30.9355C25.7031 30.8839 26.5067 30.6949 27.2029 30.4241C28.6814 29.8525 29.8504 28.6835 30.422 27.2052C30.6926 26.5046 30.8818 25.7052 30.9333 24.5362C30.9849 23.3629 30.9978 22.9891 30.9978 20.0021C30.9978 17.0152 30.9934 16.6414 30.9419 15.4681ZM28.9608 24.4503C28.9134 25.5247 28.7329 26.1049 28.5825 26.4917C28.2129 27.4501 27.4522 28.2108 26.4938 28.5805C26.107 28.7309 25.5226 28.9113 24.4524 28.9585C23.292 29.0102 22.944 29.023 20.0086 29.023C17.0732 29.023 16.7208 29.0102 15.5647 28.9585C14.4902 28.9113 13.91 28.7309 13.5232 28.5805C13.0463 28.4042 12.6122 28.1248 12.2598 27.7595C11.8945 27.4028 11.6151 26.973 11.4388 26.4961C11.2884 26.1093 11.108 25.5247 11.0608 24.4546C11.0091 23.2943 10.9963 22.9461 10.9963 20.0107C10.9963 17.0753 11.0091 16.723 11.0608 15.5669C11.108 14.4925 11.2884 13.9123 11.4388 13.5255C11.6151 13.0484 11.8945 12.6144 12.2641 12.2619C12.6207 11.8966 13.0505 11.6172 13.5276 11.4411C13.9144 11.2907 14.499 11.1102 15.569 11.0629C16.7294 11.0114 17.0776 10.9984 20.0128 10.9984C22.9525 10.9984 23.3005 11.0114 24.4567 11.0629C25.5312 11.1102 26.1113 11.2907 26.4981 11.4411C26.9751 11.6172 27.4092 11.8966 27.7616 12.2619C28.1269 12.6186 28.4063 13.0484 28.5825 13.5255C28.7329 13.9123 28.9134 14.4967 28.9608 15.5669C29.0123 16.7273 29.0252 17.0753 29.0252 20.0107C29.0252 22.9461 29.0123 23.2899 28.9608 24.4503Z" fill="white"/>
</svg>
