<svg width="30" height="30" viewBox="0 0 30 30" fill="none" xmlns="http://www.w3.org/2000/svg">
<circle cx="15" cy="15" r="15" fill="#171A1E"/>
<g clip-path="url(#clip0)">
<path d="M9.22353 18.2123C11.1469 20.5114 13.4621 22.3216 16.1047 23.6025C17.1108 24.0793 18.4563 24.6449 19.9554 24.7419C20.0483 24.746 20.1372 24.75 20.2302 24.75C21.2363 24.75 22.0444 24.4025 22.703 23.6873C22.7071 23.6833 22.7151 23.6752 22.7192 23.6671C22.9535 23.3843 23.2202 23.1297 23.499 22.859C23.6889 22.6772 23.8829 22.4873 24.0687 22.2933C24.9294 21.3963 24.9294 20.2568 24.0607 19.3881L21.6323 16.9597C21.2201 16.5314 20.7272 16.3051 20.21 16.3051C19.6928 16.3051 19.1958 16.5314 18.7715 16.9557L17.325 18.4022C17.1916 18.3254 17.0542 18.2567 16.9249 18.1921C16.7633 18.1113 16.6138 18.0345 16.4805 17.9496C15.1632 17.1132 13.9672 16.0223 12.8237 14.6202C12.2459 13.8888 11.858 13.2747 11.5873 12.6484C11.9671 12.3049 12.3227 11.9453 12.6661 11.5938C12.7874 11.4685 12.9126 11.3432 13.0379 11.218C13.4743 10.7816 13.7086 10.2765 13.7086 9.76337C13.7086 9.25021 13.4783 8.74513 13.0379 8.30874L11.8338 7.10464C11.6923 6.96322 11.559 6.82584 11.4216 6.68442C11.1549 6.40966 10.8761 6.12681 10.6014 5.87225C10.1852 5.46415 9.69628 5.25 9.17908 5.25C8.66592 5.25 8.17297 5.46415 7.74062 5.8763L6.22943 7.38748C5.67991 7.93701 5.36878 8.60371 5.30413 9.37547C5.22736 10.3412 5.40515 11.3675 5.86578 12.608C6.57289 14.5272 7.63961 16.3092 9.22353 18.2123ZM6.29004 9.46032C6.33853 8.92292 6.5446 8.47441 6.9325 8.08651L8.43561 6.5834C8.66997 6.35713 8.92856 6.23995 9.17908 6.23995C9.42556 6.23995 9.67608 6.35713 9.90639 6.59148C10.1771 6.842 10.4317 7.10464 10.7064 7.38344C10.8438 7.52487 10.9852 7.66629 11.1267 7.81175L12.3308 9.01585C12.5813 9.26637 12.7106 9.52093 12.7106 9.77145C12.7106 10.022 12.5813 10.2765 12.3308 10.527C12.2055 10.6523 12.0802 10.7816 11.955 10.9069C11.5792 11.2867 11.2277 11.6463 10.8398 11.9897C10.8317 11.9978 10.8277 12.0019 10.8196 12.0099C10.4842 12.3453 10.5367 12.6645 10.6175 12.907C10.6216 12.9191 10.6256 12.9272 10.6297 12.9393C10.9408 13.6868 11.3731 14.3979 12.0479 15.2465C13.2601 16.7415 14.5369 17.9012 15.9431 18.7941C16.1168 18.9073 16.3027 18.9962 16.4764 19.0851C16.6381 19.1659 16.7876 19.2426 16.9209 19.3275C16.9371 19.3356 16.9492 19.3437 16.9653 19.3517C17.0987 19.4204 17.228 19.4528 17.3573 19.4528C17.6805 19.4528 17.8906 19.2467 17.9593 19.178L19.4705 17.6668C19.7049 17.4324 19.9594 17.3072 20.21 17.3072C20.517 17.3072 20.7676 17.4971 20.9251 17.6668L23.3616 20.0993C23.8465 20.5841 23.8425 21.1094 23.3495 21.6226C23.1798 21.8044 23.002 21.9781 22.8121 22.16C22.5293 22.4347 22.2343 22.7176 21.9676 23.0368C21.503 23.5378 20.9494 23.7722 20.2342 23.7722C20.1655 23.7722 20.0928 23.7681 20.0241 23.7641C18.6988 23.6792 17.4664 23.162 16.5411 22.7216C14.0278 21.5054 11.8216 19.78 9.99125 17.59C8.4841 15.7758 7.4699 14.0868 6.79916 12.2766C6.38298 11.1655 6.22539 10.2725 6.29004 9.46032Z" fill="white"/>
</g>
<defs>
<clipPath id="clip0">
<rect width="19.5" height="19.5" fill="white" transform="translate(5.25 5.25)"/>
</clipPath>
</defs>
</svg>
