<svg width="40" height="40" viewBox="0 0 40 40" fill="none" xmlns="http://www.w3.org/2000/svg">
<rect width="40" height="40" rx="3" fill="#171A1E"/>
<path d="M30.5014 13.0729C30.1558 13.2261 29.8004 13.3555 29.4374 13.4605C29.8672 12.9744 30.195 12.4024 30.395 11.7765C30.4399 11.6362 30.3934 11.4826 30.2781 11.3908C30.1629 11.299 30.0028 11.288 29.876 11.3632C29.105 11.8205 28.2731 12.1491 27.4008 12.3413C26.5222 11.4828 25.3288 10.9941 24.0951 10.9941C21.4909 10.9941 19.3723 13.1127 19.3723 15.7168C19.3723 15.9219 19.3853 16.1259 19.4109 16.327C16.1794 16.0433 13.1752 14.4549 11.1122 11.9243C11.0386 11.8341 10.9254 11.7855 10.8094 11.7948C10.6934 11.8039 10.5891 11.8693 10.5305 11.9699C10.1121 12.6879 9.89087 13.509 9.89087 14.3445C9.89087 15.4825 10.2972 16.5622 11.0149 17.4058C10.7966 17.3303 10.5849 17.2358 10.3827 17.1236C10.2742 17.0632 10.1418 17.0641 10.034 17.1259C9.92614 17.1878 9.85851 17.3015 9.85567 17.4257C9.85517 17.4467 9.85517 17.4676 9.85517 17.4888C9.85517 19.1874 10.7694 20.7167 12.1671 21.5502C12.047 21.5382 11.927 21.5208 11.8078 21.498C11.6849 21.4746 11.5585 21.5176 11.4756 21.6114C11.3925 21.7051 11.3651 21.8356 11.4033 21.9549C11.9207 23.5701 13.2527 24.7582 14.8629 25.1204C13.5274 25.9569 12.0001 26.395 10.3968 26.395C10.0623 26.395 9.7258 26.3754 9.39651 26.3364C9.23293 26.317 9.07652 26.4135 9.02081 26.5691C8.9651 26.7247 9.02414 26.8982 9.16331 26.9875C11.223 28.3081 13.6046 29.0061 16.0505 29.0061C20.8588 29.0061 23.8668 26.7387 25.5434 24.8366C27.6341 22.4648 28.8332 19.3254 28.8332 16.2235C28.8332 16.0939 28.8312 15.963 28.8272 15.8326C29.6521 15.2111 30.3622 14.459 30.9401 13.5945C31.0279 13.4632 31.0184 13.2897 30.9167 13.1689C30.8151 13.0479 30.6459 13.0088 30.5014 13.0729Z" fill="white"/>
</svg>
